<svg height="512pt" viewBox="0 0 512 512" width="512pt" xmlns="http://www.w3.org/2000/svg"><path d="m256 383.460938c-.488281 0-.988281-.023438-1.480469-.070313-.480469-.050781-.96875-.121094-1.449219-.222656-.480468-.101563-.960937-.21875-1.429687-.359375-.460937-.140625-.929687-.308594-1.378906-.5-.453125-.179688-.890625-.390625-1.320313-.621094-.441406-.226562-.863281-.476562-1.269531-.75-.402344-.277344-.800781-.566406-1.183594-.878906-.378906-.308594-.75-.640625-1.097656-.988282-.339844-.339843-.679687-.710937-.992187-1.089843-.308594-.382813-.597657-.78125-.867188-1.191407-.269531-.398437-.519531-.828124-.75-1.261718-.230469-.429688-.441406-.878906-.632812-1.328125-.1875-.449219-.347657-.910157-.5-1.378907-.136719-.472656-.257813-.949218-.359376-1.421874-.089843-.476563-.167968-.96875-.210937-1.460938-.046875-.488281-.078125-.988281-.078125-1.46875 0-.488281.03125-.988281.078125-1.480469.042969-.488281.121094-.96875.210937-1.460937.101563-.46875.222657-.949219.359376-1.417969.152343-.46875.3125-.929687.5-1.378906.191406-.453125.402343-.902344.632812-1.332031.230469-.429688.480469-.859376.75-1.257813.269531-.410156.558594-.8125.867188-1.191406.3125-.378907.652343-.75.992187-1.089844.347656-.351563.71875-.679687 1.097656-.988281.382813-.3125.78125-.601563 1.183594-.882813.40625-.269531.828125-.519531 1.269531-.75.429688-.226562.867188-.4375 1.320313-.628906.449219-.179687.917969-.351563 1.378906-.488281.46875-.140625.949219-.261719 1.429687-.359375.480469-.101563.96875-.171875 1.449219-.222657.980469-.101562 1.980469-.101562 2.960938 0 .480469.050782.96875.121094 1.449219.222657.480468.097656.960937.21875 1.429687.359375.460937.140625.929687.308594 1.378906.488281.449219.191406.890625.398437 1.320313.628906.441406.230469.859375.480469 1.269531.75.402344.28125.800781.570313 1.183594.882813.378906.308594.75.640625 1.097656.988281.339844.339844.679687.710937.992187 1.089844.308594.378906.597657.78125.867188 1.191406.273438.398437.523438.828125.75 1.257813.230469.429687.441406.878906.632812 1.332031.1875.449219.347657.910156.5 1.378906.140626.46875.257813.949219.359376 1.417969.089843.492187.167968.972656.210937 1.460937.046875.492188.078125.992188.078125 1.480469 0 .480469-.03125.980469-.078125 1.46875-.042969.492188-.121094.980469-.210937 1.460938-.101563.472656-.222657.949218-.359376 1.421874-.152343.46875-.3125.929688-.5 1.378907-.191406.449219-.402343.898437-.632812 1.328125-.226562.433594-.476562.863281-.75 1.261718-.269531.410157-.558594.8125-.867188 1.191407-.3125.378906-.652343.75-.992187 1.089843-.347656.351563-.71875.679688-1.097656.988282-.382813.3125-.78125.601562-1.183594.878906-.40625.273438-.828125.523438-1.269531.75-.429688.230469-.871094.441406-1.320313.621094-.449219.191406-.917969.359375-1.390625.5-.457031.140625-.9375.261718-1.417968.359375-.480469.101562-.96875.171875-1.449219.222656-.492188.046875-.992188.070313-1.480469.070313zm0 0" fill="#ff3f62"/><path d="m437.019531 74.980469c-48.351562-48.351563-112.640625-74.980469-181.019531-74.980469-68.382812 0-132.667969 26.628906-181.019531 74.980469-48.351563 48.351562-74.980469 112.640625-74.980469 181.019531 0 63.355469 22.875 123.1875 64.691406 170.097656l-60.296875 60.292969c-5.859375 5.859375-5.859375 15.355469 0 21.214844 2.929688 2.929687 6.765625 4.394531 10.605469 4.394531s7.679688-1.464844 10.605469-4.394531l60.296875-60.296875c46.910156 41.816406 106.742187 64.691406 170.097656 64.691406 68.378906 0 132.667969-26.628906 181.019531-74.980469 48.351563-48.355469 74.980469-112.640625 74.980469-181.019531s-26.628906-132.667969-74.980469-181.019531zm-181.019531 407.015625c-124.617188 0-226-101.378906-226-225.996094s101.382812-226 226-226 226 101.382812 226 226-101.382812 225.996094-226 225.996094zm0 0" fill="#00479b"/><path d="m256 287.066406c-8.285156 0-15-6.71875-15-15v-128.53125c0-8.285156 6.714844-15 15-15s15 6.714844 15 15v128.53125c0 8.285156-6.714844 15-15 15zm0 0" fill="#ff3f62"/></svg>