<svg width="728" height="728" viewBox="0 0 728 728" fill="none" xmlns="http://www.w3.org/2000/svg">
<rect width="728" height="728" rx="6" fill="#F9F9F9"/>
<path fill-rule="evenodd" clip-rule="evenodd" d="M362.345 300.849C361.298 300.866 360.265 301.088 359.305 301.504C358.344 301.919 357.475 302.52 356.746 303.271C356.018 304.023 355.445 304.911 355.059 305.884C354.674 306.857 354.484 307.896 354.501 308.943L354.594 356.631L306.844 356.724C305.795 356.726 304.757 356.935 303.789 357.338C302.821 357.741 301.942 358.331 301.202 359.074C299.708 360.574 298.871 362.607 298.875 364.724C298.879 366.842 299.724 368.871 301.224 370.365C302.725 371.86 304.757 372.697 306.875 372.693L354.594 372.599L354.687 420.319C354.672 421.375 354.867 422.423 355.261 423.403C355.655 424.383 356.24 425.275 356.981 426.027C357.723 426.779 358.606 427.376 359.58 427.784C360.555 428.191 361.6 428.401 362.656 428.401C363.712 428.401 364.758 428.191 365.732 427.784C366.706 427.376 367.59 426.779 368.331 426.027C369.073 425.275 369.657 424.383 370.051 423.403C370.445 422.423 370.64 421.375 370.625 420.319L370.563 372.568L418.251 372.475C419.307 372.488 420.355 372.29 421.334 371.895C422.313 371.499 423.203 370.913 423.954 370.17C424.704 369.427 425.299 368.542 425.705 367.567C426.111 366.592 426.318 365.546 426.316 364.49C426.314 363.434 426.102 362.389 425.693 361.416C425.284 360.443 424.685 359.56 423.932 358.82C423.178 358.08 422.285 357.498 421.305 357.106C420.324 356.714 419.276 356.521 418.22 356.537L370.532 356.631L370.469 308.943C370.482 307.875 370.28 306.816 369.875 305.828C369.471 304.84 368.872 303.944 368.114 303.192C367.356 302.44 366.455 301.848 365.464 301.451C364.473 301.054 363.412 300.86 362.345 300.88V300.849Z" fill="#249FE6"/>
</svg>
