<svg width="1141" height="295" viewBox="0 0 1141 295" fill="none" xmlns="http://www.w3.org/2000/svg">
  <rect x="820" y="189" width="321" height="106" rx="53" fill="#F2994A"/>
  <path d="M928.76 265.612C925.269 265.612 921.96 265.159 918.832 264.252C915.749 263.3 913.233 262.031 911.284 260.444C910.241 259.673 909.72 258.585 909.72 257.18C909.72 256.228 909.992 255.412 910.536 254.732C911.125 254.007 911.805 253.644 912.576 253.644C913.392 253.644 914.321 253.961 915.364 254.596C917.313 256.001 919.353 257.021 921.484 257.656C923.615 258.291 925.972 258.608 928.556 258.608C931.865 258.608 934.404 258.041 936.172 256.908C937.94 255.729 938.824 254.029 938.824 251.808C938.824 250.085 937.985 248.771 936.308 247.864C934.676 246.912 931.933 246.005 928.08 245.144C924.091 244.283 920.849 243.285 918.356 242.152C915.863 241.019 913.981 239.568 912.712 237.8C911.443 236.032 910.808 233.788 910.808 231.068C910.808 228.257 911.601 225.741 913.188 223.52C914.775 221.299 916.973 219.576 919.784 218.352C922.64 217.083 925.836 216.448 929.372 216.448C935.855 216.448 941.136 218.171 945.216 221.616C945.805 222.115 946.213 222.613 946.44 223.112C946.712 223.565 946.848 224.155 946.848 224.88C946.848 225.832 946.553 226.671 945.964 227.396C945.42 228.076 944.763 228.416 943.992 228.416C943.539 228.416 943.108 228.348 942.7 228.212C942.337 228.076 941.839 227.827 941.204 227.464C939.345 226.104 937.532 225.107 935.764 224.472C934.041 223.792 931.911 223.452 929.372 223.452C926.289 223.452 923.841 224.087 922.028 225.356C920.26 226.58 919.376 228.303 919.376 230.524C919.376 232.383 920.169 233.811 921.756 234.808C923.343 235.805 926.04 236.735 929.848 237.596C933.883 238.503 937.147 239.523 939.64 240.656C942.179 241.744 944.105 243.149 945.42 244.872C946.78 246.595 947.46 248.748 947.46 251.332C947.46 254.143 946.667 256.636 945.08 258.812C943.539 260.943 941.34 262.62 938.484 263.844C935.673 265.023 932.432 265.612 928.76 265.612ZM971.59 259.084C973.857 259.22 974.99 260.24 974.99 262.144C974.99 263.232 974.537 264.071 973.63 264.66C972.769 265.204 971.522 265.431 969.89 265.34L968.054 265.204C960.438 264.66 956.63 260.58 956.63 252.964V238.14H953.23C952.006 238.14 951.054 237.868 950.374 237.324C949.74 236.78 949.422 235.987 949.422 234.944C949.422 233.901 949.74 233.108 950.374 232.564C951.054 232.02 952.006 231.748 953.23 231.748H956.63V225.492C956.63 224.268 957.016 223.293 957.786 222.568C958.557 221.843 959.6 221.48 960.914 221.48C962.184 221.48 963.204 221.843 963.974 222.568C964.745 223.293 965.13 224.268 965.13 225.492V231.748H970.91C972.134 231.748 973.064 232.02 973.698 232.564C974.378 233.108 974.718 233.901 974.718 234.944C974.718 235.987 974.378 236.78 973.698 237.324C973.064 237.868 972.134 238.14 970.91 238.14H965.13V253.576C965.13 256.931 966.672 258.721 969.754 258.948L971.59 259.084ZM994.584 265.544C991.184 265.544 988.192 264.841 985.608 263.436C983.069 262.031 981.097 260.013 979.692 257.384C978.287 254.755 977.584 251.695 977.584 248.204C977.584 244.713 978.287 241.676 979.692 239.092C981.097 236.463 983.069 234.445 985.608 233.04C988.192 231.635 991.184 230.932 994.584 230.932C997.984 230.932 1000.95 231.635 1003.49 233.04C1006.08 234.445 1008.05 236.463 1009.41 239.092C1010.81 241.676 1011.52 244.713 1011.52 248.204C1011.52 251.695 1010.81 254.755 1009.41 257.384C1008.05 260.013 1006.08 262.031 1003.49 263.436C1000.95 264.841 997.984 265.544 994.584 265.544ZM994.516 258.948C997.281 258.948 999.389 258.041 1000.84 256.228C1002.29 254.415 1003.02 251.74 1003.02 248.204C1003.02 244.713 1002.29 242.061 1000.84 240.248C999.389 238.389 997.304 237.46 994.584 237.46C991.864 237.46 989.756 238.389 988.26 240.248C986.809 242.061 986.084 244.713 986.084 248.204C986.084 251.74 986.809 254.415 988.26 256.228C989.711 258.041 991.796 258.948 994.516 258.948ZM1037.1 231.068C1038.28 230.977 1039.21 231.227 1039.89 231.816C1040.57 232.405 1040.91 233.289 1040.91 234.468C1040.91 235.692 1040.61 236.599 1040.02 237.188C1039.43 237.777 1038.37 238.163 1036.83 238.344L1034.79 238.548C1032.11 238.82 1030.14 239.727 1028.87 241.268C1027.65 242.809 1027.03 244.736 1027.03 247.048V261.328C1027.03 262.643 1026.63 263.663 1025.81 264.388C1024.99 265.068 1023.97 265.408 1022.75 265.408C1021.53 265.408 1020.51 265.068 1019.69 264.388C1018.92 263.663 1018.53 262.643 1018.53 261.328V235.012C1018.53 233.743 1018.92 232.768 1019.69 232.088C1020.51 231.408 1021.5 231.068 1022.68 231.068C1023.86 231.068 1024.81 231.408 1025.54 232.088C1026.26 232.723 1026.63 233.652 1026.63 234.876V237.596C1027.49 235.601 1028.76 234.06 1030.43 232.972C1032.16 231.884 1034.06 231.272 1036.15 231.136L1037.1 231.068ZM1070.22 255.888C1070.99 255.888 1071.6 256.183 1072.05 256.772C1072.55 257.361 1072.8 258.155 1072.8 259.152C1072.8 260.557 1071.96 261.736 1070.28 262.688C1068.74 263.549 1067 264.252 1065.05 264.796C1063.1 265.295 1061.24 265.544 1059.47 265.544C1054.12 265.544 1049.88 264.003 1046.76 260.92C1043.63 257.837 1042.06 253.621 1042.06 248.272C1042.06 244.872 1042.74 241.857 1044.1 239.228C1045.46 236.599 1047.37 234.559 1049.82 233.108C1052.31 231.657 1055.12 230.932 1058.25 230.932C1061.24 230.932 1063.85 231.589 1066.07 232.904C1068.29 234.219 1070.01 236.077 1071.24 238.48C1072.46 240.883 1073.07 243.716 1073.07 246.98C1073.07 248.929 1072.21 249.904 1070.49 249.904H1050.43C1050.7 253.032 1051.58 255.344 1053.08 256.84C1054.58 258.291 1056.75 259.016 1059.61 259.016C1061.06 259.016 1062.33 258.835 1063.42 258.472C1064.55 258.109 1065.82 257.611 1067.22 256.976C1068.58 256.251 1069.58 255.888 1070.22 255.888ZM1058.45 236.916C1056.14 236.916 1054.28 237.641 1052.88 239.092C1051.52 240.543 1050.7 242.628 1050.43 245.348H1065.8C1065.71 242.583 1065.03 240.497 1063.76 239.092C1062.49 237.641 1060.72 236.916 1058.45 236.916Z" fill="#F2F2F2"/>
  <g clip-path="url(#clip0)">
    <path d="M146.232 91.7902C173.919 69.1356 230.462 -12.4991 141.943 1.95298C103.337 7.81193 46.7943 45.3092 35.4857 88.6655C29.6364 76.9476 23.0072 66.0108 15.9881 55.0741C5.06943 40.2315 -7.01909 51.9494 4.67948 66.792C39.358 108.848 59.3522 161.11 61.6125 215.609C64.3422 189.439 60.0527 157.41 49.524 126.163C54.5933 127.725 60.4426 128.506 65.512 128.506C83.4498 158.192 111.136 183.58 141.943 195.298C170.409 206.626 208.234 199.986 192.636 154.286C184.447 129.288 165.34 107.414 146.232 91.7902ZM150.132 12.4991C199.266 7.03074 146.622 68.3544 129.464 79.6817C113.476 69.1356 93.1986 59.7613 73.701 62.4955C87.7393 44.1374 122.055 16.0145 150.132 12.4991ZM73.3111 75.7758C86.5694 74.604 100.998 82.0253 112.306 89.8372C101.388 95.3056 89.689 98.4304 77.6005 99.6022C59.6627 99.6022 55.7632 77.3381 73.3111 75.7758ZM141.163 171.081C118.156 164.441 96.3182 145.693 80.7201 126.944C93.5886 124.21 106.457 119.132 118.156 112.101C122.445 110.148 126.734 107.023 130.634 104.289C144.282 116.788 158.711 133.584 164.17 152.723C169.629 173.425 154.811 174.987 141.163 171.081Z" fill="#F5A623"/>
    <path d="M334.579 40.2315H267.507C265.167 40.2315 263.218 42.1845 263.218 44.528H262.828V149.989C262.828 152.333 264.778 154.286 267.117 154.286C269.067 154.286 271.017 152.333 271.407 149.989V102.336H328.34C330.679 102.336 331.849 100.383 331.849 98.4304C331.849 96.0868 330.289 94.915 328.34 94.915H271.017V48.434H334.579C336.919 48.434 338.089 46.481 338.089 44.528C338.089 43.3563 336.919 41.7939 334.579 40.2315ZM365.385 34.7631H364.995C363.045 34.7631 361.876 36.3255 361.876 38.2785V149.599C361.876 151.942 363.435 153.505 365.385 153.505C367.725 153.505 368.895 151.552 368.895 149.599V39.0597C368.895 36.3255 367.725 34.7631 365.385 34.7631ZM462.483 74.604C462.483 72.2604 460.923 70.698 458.974 70.698C456.634 70.698 455.464 72.651 455.464 74.604V121.085C455.464 136.709 443.376 149.208 428.557 148.817C412.959 148.817 403.99 137.881 403.99 120.694V74.604C403.99 72.2604 402.431 70.698 400.481 70.698C398.921 70.698 396.971 72.651 396.971 74.604V121.866C396.971 141.396 408.67 155.848 427.778 155.848C439.476 156.239 450.395 149.599 455.854 138.662V150.77C455.854 153.114 457.804 154.286 459.364 154.286C461.703 154.286 462.873 152.333 462.873 150.77H462.483V74.604ZM526.825 78.51C528.385 78.51 530.335 76.9476 530.335 74.9946C530.335 73.4322 528.385 71.4792 526.825 71.4792H502.258V48.434C502.258 46.481 500.309 44.528 498.749 44.528H498.359C496.409 44.528 495.239 46.481 495.239 48.434V71.4792H486.66C484.711 71.4792 483.151 72.651 483.151 74.604C483.151 76.557 484.711 78.51 486.66 78.51H495.239V132.412C495.239 147.646 504.988 155.067 516.297 155.067C520.196 155.067 524.096 154.286 527.605 153.114C528.775 152.333 529.945 151.161 529.945 149.599C529.945 147.646 528.385 146.474 526.825 146.474C524.096 147.255 520.976 147.646 517.857 147.646C508.498 147.646 502.258 143.349 502.258 131.631V78.51H526.825ZM587.268 78.51C589.218 78.51 590.778 76.9476 590.778 74.9946C590.778 73.4322 589.218 71.4792 587.268 71.4792H562.701V48.434C562.701 46.481 561.141 44.528 559.191 44.528H558.801C556.852 44.528 555.682 46.481 555.682 48.434V71.4792H547.103C545.543 71.4792 543.593 72.651 543.593 74.604C543.593 76.557 545.543 78.51 547.103 78.51H555.682V132.412C555.682 147.646 565.431 155.067 577.129 155.067C580.639 155.067 584.538 154.286 588.048 153.114C589.608 152.333 590.388 151.161 590.388 149.599C590.388 147.646 589.218 146.474 587.268 146.474C584.538 147.255 581.419 147.646 578.299 147.646C568.94 147.646 562.701 143.349 562.701 131.631V78.51H587.268ZM640.691 69.1356C620.024 69.1356 604.426 87.8843 604.426 112.492V112.882C604.426 139.052 621.584 156.239 642.251 156.239C653.17 156.629 664.479 151.942 671.888 142.958C673.057 142.177 673.447 141.005 673.447 140.224C673.447 138.271 671.498 136.318 669.938 136.318L667.598 137.099C664.504 140.712 660.68 143.625 656.377 145.645C652.075 147.665 647.392 148.747 642.641 148.817C627.433 148.817 613.785 136.709 612.225 116.398H673.057C674.617 116.398 676.567 114.445 676.567 112.492C676.567 87.8843 662.529 69.1356 640.691 69.1356ZM611.835 108.586C613.005 90.6185 625.093 76.557 640.302 76.557C657.849 76.557 667.208 91.7902 667.988 108.586H611.835ZM736.23 70.3074C722.191 71.4792 710.493 81.2441 705.424 95.3056V74.9946C705.424 73.4322 703.474 71.4792 701.914 71.4792C699.574 71.4792 698.404 72.651 698.014 74.9946V151.552C698.014 153.505 699.574 155.458 701.524 155.458C703.474 155.458 705.034 153.895 705.424 151.552V121.085C705.424 94.1338 719.852 81.2441 736.23 79.2912H736.62C738.959 79.2912 740.129 76.9476 740.129 74.9946C740.129 72.2604 738.569 70.3074 736.23 70.3074Z" fill="black"/>
    <path d="M867.644 66.0108C862.574 66.0108 857.895 69.9168 856.725 75.3852L843.466 119.913L830.598 75.3852C829.428 69.9168 824.359 65.6202 818.51 65.6202H817.34C811.49 65.6202 806.421 69.1356 805.251 75.3852L792.383 119.132L779.904 74.9946C778.344 69.9168 774.055 65.6202 768.596 65.6202H768.206C762.356 65.6202 758.067 70.698 758.067 76.9476L758.847 82.8065L778.734 144.13C780.294 150.38 785.364 154.676 791.603 155.067H792.383C798.232 155.067 802.911 150.77 804.861 144.521L817.73 100.774L830.598 144.521C832.158 150.77 837.227 155.067 843.077 155.067H844.246C850.486 155.067 855.555 150.77 857.115 144.13L877.002 82.0253L878.172 77.3382V76.9476C878.172 70.698 873.493 66.0108 867.644 66.0108ZM924.967 66.0108C915.998 65.6202 907.419 67.5732 898.84 70.3074C895.33 71.8698 893.38 75.3852 893.38 79.6817C893.38 85.5407 897.67 89.8372 903.129 89.4466C903.909 89.4466 905.079 89.4466 906.249 88.6655C911.318 87.1031 916.778 86.3219 922.237 86.3219C933.935 86.3219 939.785 91.7902 939.785 102.336V103.508C933.546 101.165 926.526 100.383 919.897 100.383C900.79 100.383 887.531 109.367 887.531 128.506C887.531 145.302 900.4 155.067 915.218 155.067C924.577 155.458 933.546 151.161 939.785 144.13C940.175 150.38 944.854 154.676 950.703 154.676C956.943 154.676 962.012 149.208 962.012 142.568V103.508C962.402 93.7432 959.282 83.5877 953.043 76.1664C946.414 69.9168 937.445 66.0108 924.967 66.0108ZM940.175 122.647C940.175 132.022 932.376 137.881 921.847 137.49C914.438 137.49 909.368 133.584 909.368 126.944V126.553C909.368 119.132 915.608 114.445 925.357 114.445C930.036 114.445 935.495 116.007 940.175 117.96V122.647ZM1041.17 65.6202C1036.49 65.6202 1031.81 68.745 1030.64 74.2134L1012.71 124.6L995.548 74.604C993.988 69.1356 989.699 65.6202 984.239 65.6202C978.39 65.6202 973.711 70.3074 972.931 76.9476C972.931 78.9005 973.711 80.8535 974.491 82.8065L999.447 144.13C1001.01 150.38 1006.08 154.676 1012.32 155.067H1013.88C1019.34 154.676 1024.79 150.77 1027.13 144.521L1051.31 83.1971L1052.48 77.3382V76.9476C1052.48 70.698 1047.8 65.6202 1041.17 65.6202ZM1101.62 65.2297C1077.83 65.2297 1061.45 85.5407 1061.45 110.148V114.054C1062.23 137.881 1081.73 156.239 1103.95 155.067C1114.09 155.067 1123.84 151.552 1132.03 144.521C1134.37 142.568 1135.15 140.224 1135.15 137.49V137.099C1135.15 131.631 1131.25 127.335 1126.18 127.335C1124.23 127.335 1122.28 127.725 1120.72 129.288C1116.18 133.208 1110.34 135.296 1104.34 135.146C1094.6 135.537 1086.02 128.506 1084.85 117.96H1130.47C1136.32 117.57 1141 112.101 1140.61 105.852V103.899C1140.61 82.8065 1123.06 64.4485 1101.62 65.2297ZM1084.07 103.508C1086.02 92.1808 1092.26 85.1501 1101.62 85.1501C1110.97 85.1501 1117.21 92.5714 1118.38 103.508H1084.07Z" fill="black" stroke="black"/>
  </g>
  <defs>
    <clipPath id="clip0">
      <rect width="1141" height="216" fill="white"/>
    </clipPath>
  </defs>
</svg>
